<svg width="924" height="788" viewBox="0 0 924 788" fill="none" xmlns="http://www.w3.org/2000/svg">
<g id="Group 1">
<circle id="Ellipse 2" cx="394" cy="394" r="394" fill="#6C63FF"/>
<g id="undraw_monitor_iqpq 1">
<path id="Vector" d="M501.548 212.103C500.935 211.298 500.177 210.613 499.315 210.083C498.004 209.502 496.542 209.352 495.141 209.656C491.609 210.194 488.33 211.81 485.226 213.615C482.723 215.049 480.236 216.641 478.447 218.898C477.857 219.578 477.446 220.395 477.251 221.274C477.149 221.999 477.211 222.738 477.433 223.436C477.592 224.221 477.93 224.96 478.42 225.595C478.91 226.229 479.54 226.742 480.26 227.094C481.915 227.744 483.761 227.055 485.424 226.421C487.657 225.558 490.112 224.758 492.409 225.439C494.112 225.946 495.577 227.237 497.374 227.285C499.489 227.348 501.2 225.637 502.546 224.006C503.71 222.58 506.26 220.006 506.094 218.003C505.928 215.999 502.799 213.536 501.548 212.103Z" fill="#FBBEBE"/>
<path id="Vector_2" d="M528.237 273.741C526.299 274.257 524.271 274.341 522.297 273.986C521.094 273.765 519.621 273.48 518.852 274.422C518.605 274.771 518.44 275.172 518.369 275.594C516.397 283.664 518.203 292.225 521.537 299.868C521.579 299.997 521.656 300.112 521.759 300.2C521.973 300.359 522.266 300.248 522.511 300.145C523.318 299.821 524.073 299.38 524.753 298.838C526.273 297.46 526.598 295.219 526.669 293.168C526.74 291.117 526.709 288.947 527.77 287.188C529.1 285.011 531.88 283.949 532.973 281.645C533.852 279.768 533.393 277.542 532.617 275.626C532.355 274.961 532.252 273.25 531.635 272.925C531.017 272.601 528.942 273.551 528.237 273.741Z" fill="#FBBEBE"/>
<path id="Vector_3" d="M501.318 211.295C501.494 211.197 501.626 211.037 501.688 210.846C501.75 210.655 501.737 210.447 501.651 210.265C501.481 209.903 501.232 209.584 500.923 209.331C500.232 208.664 499.601 207.938 499.038 207.161C498.416 206.2 497.719 205.289 496.955 204.437C496.566 204.013 496.088 203.683 495.555 203.469C495.022 203.255 494.447 203.164 493.874 203.201C493.238 203.315 492.631 203.558 492.092 203.914C489.938 205.162 487.955 206.685 486.192 208.444C486.057 208.578 485.907 208.745 485.939 208.935C485.97 209.125 486.097 209.204 486.113 209.363C486.118 209.506 486.067 209.645 485.97 209.751C484.912 211.068 483.657 212.214 482.248 213.148C480.252 214.648 478.299 216.205 476.388 217.821C475.192 218.671 474.248 219.829 473.655 221.171C473.25 222.735 473.428 224.392 474.154 225.835C475.477 228.94 477.781 231.506 480.054 234C480.435 234.509 480.967 234.884 481.575 235.07C482.055 235.135 482.541 235.016 482.937 234.737C484.323 233.826 484.521 231.925 484.64 230.27L484.767 227.981C484.763 227.832 484.793 227.683 484.854 227.546C484.973 227.372 485.141 227.237 485.337 227.158L487.491 226.017C486.832 224.946 485.895 224.074 484.779 223.494C483.663 222.913 482.411 222.647 481.155 222.723C480.581 222.859 479.977 222.777 479.46 222.493C479.211 222.234 479.071 221.887 479.071 221.527C479.071 221.167 479.211 220.82 479.46 220.561C479.985 220.062 480.628 219.705 481.329 219.523C487.008 217.44 492.14 214.098 497.652 211.604C498.255 211.298 498.924 211.143 499.6 211.152C500.154 211.192 500.804 211.517 501.318 211.295Z" fill="#F86D70"/>
<path id="Vector_4" d="M523.691 294.229C523.438 294.704 523.351 295.258 523.074 295.726C522.796 296.193 522.195 296.518 521.727 296.28C521.481 296.108 521.298 295.861 521.205 295.575C518.803 290.083 518.126 283.99 519.264 278.105C519.422 277.142 519.707 276.205 520.112 275.317C520.531 274.462 521.141 273.59 520.967 272.656C518.706 273.369 516.532 274.336 514.489 275.539C513.142 276.331 511.725 277.431 511.598 278.984C511.586 279.585 511.674 280.185 511.859 280.758L512.604 283.553C512.694 284.072 512.924 284.557 513.269 284.955C513.507 285.193 513.831 285.343 514.061 285.597C514.279 285.892 514.425 286.233 514.489 286.594L515.114 289.018C515.347 289.827 515.514 290.653 515.613 291.489C515.685 292.281 515.613 293.009 515.677 293.77C515.766 295.02 515.952 296.262 516.231 297.484L517.126 301.871C517.328 303.097 517.679 304.294 518.171 305.435C518.544 306.227 519.043 306.908 519.351 307.708C519.581 308.318 519.7 308.967 519.985 309.545C520.499 310.483 521.302 311.23 522.274 311.676C522.615 311.875 522.996 311.997 523.39 312.032C524.507 312.072 525.307 310.987 525.83 309.989C526.851 308.175 527.396 306.131 527.414 304.049C527.414 303.21 527.239 302.378 527.168 301.539C526.97 299.163 527.635 296.858 527.627 294.49C527.643 292.273 524.507 292.693 523.691 294.229Z" fill="#F86D70"/>
<path id="Vector_5" d="M575.248 283.205C571.336 283.363 567.415 283.316 563.519 283.688C561.246 283.91 558.981 284.282 556.7 284.377C554.213 284.488 551.719 284.29 549.224 284.337C542.944 284.472 536.751 286.143 530.708 287.87C529.002 283.703 528.112 279.248 528.087 274.747C528.071 274.449 528.071 274.15 528.087 273.852C528.197 272.577 528.578 271.341 529.203 270.225C534.747 268.641 540.37 267.057 546.127 267.136C548.004 267.136 549.866 267.358 551.735 267.413C557.159 267.579 562.434 265.148 567.819 265.829C568.353 265.882 568.89 265.764 569.353 265.492C569.815 265.22 570.179 264.809 570.393 264.317C570.623 263.731 570.718 262.962 571.312 262.733C571.739 262.574 572.326 262.772 572.595 262.408C572.691 262.212 572.747 262 572.761 261.782C572.919 260.99 573.719 260.634 574.345 260.198C575.929 259.106 576.824 257.236 577.616 255.447C577.824 255.059 577.951 254.633 577.988 254.195C577.988 253.847 577.877 253.498 577.885 253.142C577.885 251.891 579.287 251.17 580.015 250.148C580.974 248.802 580.807 246.981 581.275 245.397C581.908 243.401 583.595 241.983 584.015 240.019C584.063 239.819 584.094 239.615 584.11 239.409C582.43 241.142 580.506 242.62 578.4 243.797C571.367 248.129 562.957 250.719 556.391 255.732C551.18 259.692 543.546 259.573 537.844 256.349C535.693 255.034 533.663 253.531 531.777 251.859C528.879 249.483 525.948 247.052 522.915 244.787C520.803 243.203 518.615 241.674 516.35 240.201C513.607 238.387 510.768 236.725 507.844 235.22C504.217 233.383 500.566 231.561 496.527 231.126C496.008 230.066 495.72 228.908 495.682 227.728C495.643 226.549 495.856 225.374 496.305 224.283C497.228 222.112 498.478 220.096 500.012 218.304C501.16 216.62 502.597 215.154 504.257 213.972C504.441 213.855 504.656 213.793 504.874 213.793C505.093 213.793 505.307 213.855 505.492 213.972L521.189 223.61L524.127 225.408C530.566 229.367 536.901 233.604 543.34 237.54C543.459 237.992 544.084 238.047 544.536 237.929C544.987 237.81 545.502 237.62 545.89 237.881C546.08 238.008 546.215 238.245 546.452 238.293C546.642 238.299 546.827 238.237 546.975 238.119C549.636 236.289 550.998 232.773 553.984 231.545C555.259 231.023 556.771 230.943 557.769 229.961C558.359 229.213 558.889 228.418 559.353 227.586C560.644 225.899 563.091 225.392 564.287 223.626C565.079 222.482 566.031 221.458 567.114 220.585C569.271 218.828 571.142 216.747 572.658 214.415C573.441 213.264 574.052 212.005 574.472 210.677C574.678 209.988 574.804 209.275 575.034 208.594C575.755 206.519 577.41 204.928 579.065 203.486C582.067 200.857 585.306 198.362 589.107 197.15C590.433 196.843 591.717 196.378 592.932 195.765C594.461 194.83 595.863 193.096 597.613 193.5C598.277 193.705 598.875 194.082 599.347 194.592C601.494 196.68 603.467 198.94 605.247 201.348C608.072 204.943 610.894 208.542 613.713 212.142C614.603 213.437 615.728 214.552 617.032 215.429C618.922 216.402 621.094 216.682 623.169 216.221C622.892 219.159 620.556 221.582 619.59 224.37C619.122 225.724 618.94 227.166 618.592 228.552C618.101 230.291 617.473 231.988 616.715 233.628C614.814 238.055 612.898 242.506 610.173 246.482C608.764 248.549 607.14 250.441 605.548 252.382C599.268 259.961 594.461 269.1 587.333 275.919C585.607 277.59 584.514 279.879 582.581 281.312C580.483 282.864 577.774 283.102 575.248 283.205Z" fill="#434175"/>
<path id="Vector_6" opacity="0.1" d="M605.089 182.721C604.39 182.755 603.711 182.959 603.109 183.315C604.558 182.808 606.324 184.162 607.663 183.521C608.288 183.22 608.193 183.133 607.663 182.951C606.863 182.681 605.897 182.927 605.089 182.721Z" fill="black"/>
<path id="Vector_7" opacity="0.1" d="M604.376 190.451C603.839 190.262 603.261 190.227 602.705 190.348C601.876 190.436 601.104 190.814 600.527 191.417C600.68 191.486 600.846 191.521 601.014 191.521C601.182 191.521 601.348 191.486 601.501 191.417C602.019 191.285 602.552 191.227 603.085 191.242C603.545 191.242 604.915 191.749 605.271 191.528C605.794 191.187 604.733 190.585 604.376 190.451Z" fill="black"/>
<path id="Vector_8" opacity="0.1" d="M575.802 266.827L528.079 273.852C528.189 272.577 528.57 271.341 529.195 270.225C534.739 268.641 540.362 267.057 546.12 267.136C547.997 267.136 549.858 267.358 551.727 267.413C557.152 267.579 562.426 265.148 567.811 265.829C568.345 265.882 568.882 265.764 569.345 265.492C569.807 265.22 570.172 264.809 570.385 264.317C570.615 263.731 570.71 262.962 571.304 262.733C571.732 262.574 572.318 262.772 572.587 262.408C572.683 262.212 572.739 262 572.753 261.782C572.912 260.99 573.711 260.634 574.337 260.198C575.921 259.106 576.816 257.236 577.608 255.447C577.816 255.059 577.943 254.633 577.98 254.195C577.98 253.847 577.869 253.498 577.877 253.142C577.877 251.891 579.279 251.17 580.008 250.148C580.966 248.802 580.8 246.981 581.267 245.397C581.9 243.401 583.587 241.983 584.007 240.019L584.213 239.75L592.338 236.582L575.802 266.827Z" fill="black"/>
<path id="Vector_9" d="M461.562 626.171L320.443 624.365L320.855 620.746L327.681 561.04H451.607L460.731 620.746L461.427 625.268L461.562 626.171Z" fill="#D0D2D5"/>
<path id="Vector_10" opacity="0.1" d="M461.427 625.268H390.998L320.443 624.365L320.855 620.746H460.731L461.427 625.268Z" fill="black"/>
<path id="Vector_11" d="M484.18 621.649H296.922V626.171H484.18V621.649Z" fill="#D0D2D5"/>
<path id="Vector_12" d="M662.839 202.441C662.852 200.89 662.559 199.352 661.977 197.915C661.395 196.478 660.535 195.17 659.446 194.067C658.356 192.963 657.06 192.085 655.631 191.484C654.202 190.882 652.668 190.569 651.118 190.561H128.171C126.621 190.57 125.087 190.884 123.659 191.486C122.23 192.088 120.934 192.965 119.845 194.069C118.756 195.172 117.896 196.48 117.313 197.917C116.731 199.353 116.437 200.891 116.45 202.441V519.431H662.839V202.441Z" fill="#3F3D56"/>
<path id="Vector_13" d="M116.45 516.263V553.398C116.45 556.506 117.685 559.488 119.883 561.686C122.081 563.884 125.062 565.119 128.171 565.119H651.118C654.226 565.119 657.208 563.884 659.406 561.686C661.604 559.488 662.839 556.506 662.839 553.398V516.263H116.45Z" fill="#D0D2D5"/>
<path id="Vector_14" d="M642.937 210.503H139.068V495.458H642.937V210.503Z" fill="#2F2E41"/>
<path id="Vector_15" d="M392.361 551.03C394.211 551.03 396.036 550.61 397.7 549.802C399.364 548.994 400.823 547.819 401.967 546.365V546.365C402.316 545.921 402.634 545.452 402.917 544.963L396.217 543.863L403.464 543.918C404.159 542.405 404.538 540.767 404.577 539.103C404.617 537.439 404.316 535.784 403.694 534.24L393.976 539.285L402.941 532.696C402.114 531.221 400.99 529.934 399.639 528.916C398.289 527.898 396.741 527.172 395.096 526.783C393.45 526.395 391.741 526.352 390.078 526.658C388.415 526.964 386.833 527.613 385.434 528.562C384.034 529.511 382.847 530.741 381.948 532.173C381.048 533.605 380.456 535.209 380.209 536.881C379.961 538.554 380.064 540.26 380.51 541.892C380.957 543.523 381.737 545.043 382.802 546.357V546.357C383.938 547.808 385.389 548.982 387.045 549.791C388.7 550.6 390.518 551.024 392.361 551.03V551.03Z" fill="#6C63FF"/>
<path id="Vector_16" opacity="0.1" d="M404.573 565.111L460.873 621.649L452.233 565.111H404.573Z" fill="black"/>
<g id="Group" opacity="0.1">
<path id="Vector_17" opacity="0.1" d="M786.139 441.589C786.448 440.654 786.614 439.593 787.343 438.928C787.857 438.547 788.445 438.277 789.069 438.136C792.459 437.067 795.943 435.095 797.076 431.721C797.334 431.039 797.394 430.298 797.25 429.583C797.172 429.244 797.03 428.924 796.83 428.64C798.121 429.195 799.246 429.947 799.563 431.262C799.704 431.977 799.641 432.719 799.38 433.4C798.256 436.766 794.763 438.746 791.382 439.815C790.756 439.951 790.167 440.221 789.655 440.607C788.919 441.272 788.752 442.333 788.443 443.268C788.135 444.202 787.43 445.208 786.448 445.161C785.466 445.113 784.991 444.218 784.365 443.466C785.228 443.355 785.846 442.452 786.139 441.589Z" fill="black"/>
</g>
<rect id="Rectangle 1" x="144.929" y="209.869" width="503.686" height="11.0874" fill="white"/>
<rect id="Rectangle 2" x="551.996" y="215.413" width="19.007" height="2.37588" rx="1.18794" fill="#C4C4C4"/>
<rect id="Rectangle 3" x="512.398" y="215.413" width="19.007" height="2.37588" rx="1.18794" fill="#C4C4C4"/>
<path id="Rectangle 4" d="M591.594 216.601C591.594 215.945 592.126 215.413 592.782 215.413H609.413C610.069 215.413 610.601 215.945 610.601 216.601V216.601C610.601 217.257 610.069 217.789 609.413 217.789H592.782C592.126 217.789 591.594 217.257 591.594 216.601V216.601Z" fill="#C4C4C4"/>
<rect id="Rectangle 5" x="139.385" y="378.557" width="503.686" height="117.21" fill="white"/>
<rect id="Rectangle 9" x="370.637" y="467.256" width="68.1085" height="6.33569" rx="3.16785" fill="#6159E5"/>
<rect id="Rectangle 6" x="197.99" y="403.9" width="91.8673" height="33.2623" rx="15" fill="#6C63FF"/>
<rect id="Rectangle 7" x="358.758" y="403.9" width="91.8673" height="33.2623" rx="15" fill="#6C63FF"/>
<rect id="Rectangle 8" x="519.526" y="403.9" width="91.8673" height="33.2623" rx="15" fill="#6C63FF"/>
<path id="Ellipse 1" d="M295.401 260.951C295.401 273.854 284.941 284.314 272.038 284.314C259.135 284.314 248.675 273.854 248.675 260.951C248.675 248.048 259.135 237.588 272.038 237.588C284.941 237.588 295.401 248.048 295.401 260.951Z" fill="white"/>
<g id="Vector 19">
<path d="M378.286 297.777L319.16 356.891V357.966H601.889L511.588 267.682L428.45 355.986L378.286 297.777Z" fill="white"/>
<path d="M378.286 297.777L319.16 356.891V357.966H601.889L511.588 267.682L428.45 355.986L378.286 297.777Z" fill="url(#paint0_linear)"/>
<path d="M378.286 297.777L319.16 356.891V357.966H601.889L511.588 267.682L428.45 355.986L378.286 297.777Z" stroke="black"/>
</g>
</g>
</g>
<defs>
<linearGradient id="paint0_linear" x1="460.525" y1="267.682" x2="460.525" y2="357.966" gradientUnits="userSpaceOnUse">
<stop stop-color="white"/>
<stop offset="1" stop-color="white" stop-opacity="0"/>
</linearGradient>
</defs>
</svg>
