<svg width="593" height="584" viewBox="0 0 593 584" fill="none" xmlns="http://www.w3.org/2000/svg">
<g id="undraw_Mobile_marketing_re_p77p 1" clip-path="url(#clip0)">
<path id="Path 22" d="M467.829 138.351H464.265V50.7204C464.265 37.2685 458.31 24.3676 447.709 14.8557C437.109 5.34375 422.732 8.88005e-06 407.741 0H200.832C193.409 0 186.059 1.31192 179.201 3.86086C172.344 6.40979 166.113 10.1458 160.864 14.8557C155.615 19.5655 151.452 25.1568 148.611 31.3105C145.77 37.4642 144.308 44.0597 144.308 50.7204V531.479C144.308 544.93 150.263 557.831 160.864 567.343C171.464 576.855 185.841 582.199 200.832 582.199H407.741C422.732 582.199 437.108 576.855 447.709 567.343C458.309 557.831 464.264 544.93 464.264 531.479V200.729H467.829L467.829 138.351Z" fill="#C9CAD7"/>
<path id="Path 23" d="M410.021 13.1908H383.015C384.257 15.9234 384.731 18.8881 384.396 21.8239C384.06 24.7596 382.925 27.5762 381.09 30.0255C379.256 32.4748 376.778 34.4816 373.875 35.8692C370.973 37.2567 367.734 37.9824 364.445 37.9823H245.91C242.621 37.9821 239.383 37.2563 236.481 35.8686C233.578 34.4809 231.101 32.4741 229.266 30.0248C227.432 27.5756 226.297 24.7591 225.961 21.8235C225.626 18.8879 226.1 15.9233 227.342 13.1908H202.116C190.921 13.1908 180.185 17.1815 172.268 24.2849C164.352 31.3883 159.905 41.0225 159.905 51.0683V531.128C159.905 541.174 164.352 550.808 172.268 557.912C180.185 565.015 190.921 569.006 202.116 569.006H410.021C421.217 569.006 431.953 565.015 439.87 557.912C447.786 550.808 452.233 541.174 452.233 531.128V51.0675C452.233 41.0219 447.785 31.3878 439.869 24.2846C431.953 17.1813 421.217 13.1908 410.021 13.1908Z" fill="white"/>
<path id="Vector" d="M555.532 492.761L360.438 492.83C360.19 492.83 359.953 492.742 359.778 492.585C359.603 492.428 359.505 492.215 359.505 491.993C359.505 491.771 359.603 491.558 359.778 491.401C359.953 491.244 360.19 491.156 360.438 491.156L457.985 491.121L555.532 491.087C555.78 491.087 556.017 491.175 556.192 491.332C556.367 491.489 556.465 491.702 556.465 491.924C556.465 492.146 556.367 492.359 556.192 492.516C556.017 492.673 555.78 492.761 555.532 492.761Z" fill="#D9DAE5"/>
<path id="Vector_2" d="M552.936 503.643C560.148 503.643 565.995 498.396 565.995 491.924C565.995 485.452 560.148 480.205 552.936 480.205C545.723 480.205 539.876 485.452 539.876 491.924C539.876 498.396 545.723 503.643 552.936 503.643Z" fill="#3F3D56"/>
<path id="Vector_3" d="M550.868 268.43L353.908 268.499C353.661 268.499 353.423 268.411 353.248 268.254C353.073 268.097 352.975 267.884 352.975 267.662C352.975 267.44 353.073 267.227 353.248 267.07C353.423 266.913 353.661 266.825 353.908 266.825L550.868 266.755C551.116 266.755 551.353 266.844 551.528 267.001C551.703 267.158 551.801 267.37 551.801 267.592C551.801 267.814 551.703 268.027 551.528 268.184C551.353 268.341 551.116 268.43 550.868 268.43Z" fill="#D9DAE5"/>
<path id="Vector_4" d="M552.936 280.148C560.148 280.148 565.995 274.902 565.995 268.429C565.995 261.957 560.148 256.711 552.936 256.711C545.723 256.711 539.876 261.957 539.876 268.429C539.876 274.902 545.723 280.148 552.936 280.148Z" fill="#3F3D56"/>
<path id="Vector_5" d="M46.608 153.753L243.568 153.822C243.816 153.822 244.053 153.734 244.228 153.577C244.403 153.42 244.501 153.207 244.501 152.985C244.501 152.763 244.403 152.55 244.228 152.393C244.053 152.236 243.816 152.148 243.568 152.148L46.608 152.079C46.3606 152.079 46.1233 152.167 45.9484 152.324C45.7734 152.481 45.6752 152.694 45.6752 152.916C45.6752 153.138 45.7734 153.351 45.9484 153.508C46.1233 153.665 46.3606 153.753 46.608 153.753Z" fill="#D9DAE6"/>
<path id="Vector_6" d="M44.5403 165.472C51.753 165.472 57.6 160.225 57.6 153.753C57.6 147.281 51.753 142.034 44.5403 142.034C37.3276 142.034 31.4806 147.281 31.4806 153.753C31.4806 160.225 37.3276 165.472 44.5403 165.472Z" fill="#3F3D56"/>
<path id="Vector_7" d="M46.608 380.595L243.568 380.665C243.816 380.665 244.053 380.576 244.228 380.419C244.403 380.262 244.501 380.049 244.501 379.827C244.501 379.605 244.403 379.393 244.228 379.236C244.053 379.079 243.816 378.99 243.568 378.99L46.608 378.921C46.3606 378.921 46.1233 379.009 45.9484 379.166C45.7734 379.323 45.6752 379.536 45.6752 379.758C45.6752 379.98 45.7734 380.193 45.9484 380.35C46.1233 380.507 46.3606 380.595 46.608 380.595Z" fill="#D9DAE5"/>
<path id="Vector_8" d="M44.5403 392.314C51.753 392.314 57.6 387.067 57.6 380.595C57.6 374.123 51.753 368.876 44.5403 368.876C37.3276 368.876 31.4806 374.123 31.4806 380.595C31.4806 387.067 37.3276 392.314 44.5403 392.314Z" fill="#3F3D56"/>
<path id="Vector_9" d="M285.51 192.203C277.323 192.203 269.32 189.926 262.513 185.662C255.706 181.397 250.401 175.336 247.268 168.244C244.135 161.153 243.315 153.349 244.912 145.821C246.509 138.293 250.452 131.377 256.241 125.95C262.03 120.522 269.405 116.826 277.435 115.328C285.464 113.831 293.787 114.599 301.35 117.537C308.914 120.474 315.378 125.448 319.927 131.831C324.475 138.213 326.903 145.717 326.903 153.392C326.89 163.682 322.525 173.547 314.765 180.822C307.005 188.098 296.484 192.191 285.51 192.203ZM285.51 116.43C277.713 116.43 270.091 118.598 263.608 122.66C257.125 126.721 252.073 132.494 249.089 139.248C246.105 146.002 245.324 153.433 246.846 160.603C248.367 167.773 252.121 174.359 257.634 179.529C263.148 184.698 270.172 188.218 277.819 189.644C285.466 191.07 293.393 190.338 300.596 187.541C307.799 184.743 313.956 180.006 318.288 173.927C322.62 167.849 324.932 160.703 324.932 153.392C324.92 143.593 320.763 134.198 313.372 127.269C305.982 120.339 295.962 116.441 285.51 116.43Z" fill="#3F3D56"/>
<path id="Vector_10" d="M286.959 128.257C280.727 128.258 274.684 130.269 269.846 133.954C265.008 137.638 261.67 142.771 260.392 148.491C259.115 154.211 259.975 160.169 262.829 165.364C265.683 170.559 270.357 174.675 276.066 177.021C275.952 175.063 276.11 173.1 276.538 171.181C277.059 169.113 280.028 157.308 280.028 157.308C279.435 156.041 279.138 154.67 279.156 153.286C279.156 149.514 281.482 146.697 284.39 146.697C286.862 146.697 288.05 148.435 288.05 150.514C288.05 152.843 286.462 156.32 285.651 159.547C285.489 160.144 285.479 160.769 285.622 161.371C285.766 161.973 286.058 162.535 286.475 163.012C286.893 163.488 287.424 163.866 288.026 164.115C288.628 164.363 289.283 164.476 289.94 164.443C295.078 164.443 298.544 158.251 298.544 150.912C298.544 145.333 294.533 141.164 287.25 141.164C279.022 141.164 273.884 146.924 273.884 153.355C273.804 155.168 274.443 156.945 275.678 158.342C275.894 158.51 276.049 158.738 276.119 158.993C276.188 159.248 276.17 159.518 276.066 159.763C275.932 160.228 275.641 161.353 275.508 161.808C275.485 161.945 275.427 162.075 275.339 162.188C275.252 162.3 275.137 162.391 275.004 162.453C274.871 162.515 274.725 162.547 274.576 162.545C274.428 162.544 274.282 162.509 274.151 162.444C270.358 160.99 268.589 157.104 268.589 152.718C268.589 145.492 275.096 136.824 287.989 136.824C298.35 136.824 305.172 143.856 305.172 151.4C305.172 161.387 299.247 168.84 290.522 168.84C287.589 168.84 284.839 167.352 283.894 165.671C283.894 165.671 282.318 171.533 281.979 172.669C281.352 174.6 280.434 176.436 279.252 178.123C282.986 179.157 286.913 179.426 290.767 178.911C294.62 178.397 298.311 177.112 301.589 175.143C304.867 173.174 307.654 170.567 309.763 167.499C311.872 164.431 313.252 160.974 313.81 157.362C314.368 153.749 314.092 150.067 312.998 146.564C311.905 143.061 310.022 139.819 307.475 137.059C304.928 134.298 301.778 132.084 298.239 130.565C294.699 129.046 290.852 128.259 286.959 128.257Z" fill="#3F3D56"/>
<path id="Vector_11" d="M312.12 308.633C303.933 308.633 295.93 306.357 289.123 302.092C282.316 297.828 277.011 291.766 273.878 284.675C270.745 277.583 269.925 269.78 271.522 262.251C273.119 254.723 277.062 247.808 282.85 242.38C288.639 236.952 296.015 233.256 304.044 231.758C312.074 230.261 320.396 231.029 327.96 233.967C335.524 236.904 341.988 241.879 346.536 248.261C351.085 254.643 353.512 262.147 353.512 269.823C353.5 280.112 349.135 289.977 341.375 297.253C333.615 304.529 323.094 308.621 312.12 308.633ZM312.12 232.861C304.323 232.861 296.701 235.029 290.218 239.09C283.735 243.151 278.682 248.924 275.699 255.678C272.715 262.432 271.934 269.864 273.455 277.034C274.976 284.204 278.731 290.79 284.244 295.959C289.757 301.128 296.782 304.648 304.429 306.075C312.076 307.501 320.002 306.769 327.206 303.971C334.409 301.174 340.566 296.436 344.898 290.358C349.229 284.279 351.541 277.133 351.541 269.823C351.53 260.023 347.372 250.628 339.982 243.699C332.592 236.77 322.571 232.872 312.12 232.861Z" fill="#3F3D56"/>
<path id="Vector_12" d="M321.872 249.699C324.63 249.707 327.272 250.738 329.221 252.566C331.171 254.394 332.27 256.871 332.278 259.456V278.967C332.27 281.552 331.171 284.03 329.221 285.858C327.272 287.686 324.63 288.716 321.872 288.724H301.063C298.306 288.716 295.664 287.686 293.714 285.858C291.764 284.03 290.665 281.552 290.657 278.967V259.456C290.665 256.871 291.764 254.394 293.714 252.566C295.664 250.738 298.306 249.707 301.063 249.699H321.872ZM321.872 245.797H301.063C297.203 245.808 293.504 247.25 290.775 249.81C288.045 252.369 286.507 255.837 286.495 259.456V278.967C286.507 282.586 288.045 286.054 290.775 288.614C293.504 291.173 297.203 292.615 301.063 292.626H321.872C325.733 292.615 329.431 291.173 332.161 288.614C334.89 286.054 336.429 282.586 336.44 278.967V259.456C336.429 255.837 334.89 252.369 332.161 249.81C329.431 247.25 325.733 245.808 321.872 245.797Z" fill="#3F3D56"/>
<path id="Vector_13" d="M322.619 259.269C321.794 259.267 321.003 258.958 320.42 258.41C319.837 257.862 319.51 257.119 319.511 256.345C319.512 255.571 319.841 254.829 320.425 254.282C321.009 253.735 321.801 253.428 322.626 253.428C323.452 253.428 324.243 253.735 324.827 254.282C325.411 254.829 325.74 255.571 325.741 256.345C325.742 257.119 325.415 257.862 324.832 258.41C324.249 258.958 323.458 259.267 322.633 259.269C322.628 259.269 322.624 259.269 322.619 259.269Z" fill="#3F3D56"/>
<path id="Vector_14" d="M312.4 261.407C314.047 261.407 315.656 261.864 317.025 262.722C318.394 263.58 319.461 264.799 320.091 266.225C320.721 267.651 320.886 269.22 320.565 270.734C320.243 272.248 319.451 273.639 318.286 274.731C317.122 275.822 315.639 276.566 314.024 276.867C312.409 277.168 310.736 277.013 309.215 276.423C307.693 275.832 306.393 274.831 305.479 273.548C304.564 272.264 304.076 270.755 304.076 269.212C304.076 267.142 304.953 265.156 306.514 263.693C308.075 262.229 310.192 261.407 312.4 261.407ZM312.4 257.505C309.931 257.505 307.517 258.191 305.463 259.478C303.41 260.764 301.809 262.592 300.864 264.732C299.919 266.871 299.672 269.225 300.154 271.496C300.636 273.767 301.825 275.853 303.571 277.49C305.317 279.127 307.542 280.242 309.964 280.694C312.386 281.145 314.897 280.914 317.178 280.028C319.46 279.142 321.41 277.641 322.782 275.716C324.154 273.791 324.886 271.527 324.886 269.212C324.886 266.107 323.571 263.129 321.229 260.934C318.888 258.738 315.712 257.505 312.4 257.505Z" fill="#3F3D56"/>
<path id="Vector_15" d="M285.51 422.291C277.323 422.291 269.32 420.015 262.513 415.75C255.706 411.486 250.401 405.425 247.268 398.333C244.135 391.241 243.315 383.438 244.912 375.91C246.509 368.381 250.452 361.466 256.241 356.038C262.03 350.61 269.405 346.914 277.435 345.417C285.464 343.919 293.787 344.688 301.35 347.625C308.914 350.563 315.378 355.537 319.927 361.919C324.475 368.302 326.903 375.805 326.903 383.481C326.89 393.771 322.525 403.635 314.765 410.911C307.005 418.187 296.484 422.28 285.51 422.291ZM285.51 346.519C277.713 346.519 270.091 348.687 263.608 352.748C257.125 356.81 252.073 362.582 249.089 369.336C246.105 376.09 245.324 383.522 246.846 390.692C248.367 397.862 252.121 404.448 257.634 409.617C263.148 414.786 270.172 418.307 277.819 419.733C285.466 421.159 293.393 420.427 300.596 417.629C307.799 414.832 313.956 410.094 318.288 404.016C322.62 397.938 324.932 390.791 324.932 383.481C324.92 373.682 320.763 364.287 313.372 357.357C305.982 350.428 295.962 346.53 285.51 346.519Z" fill="#3F3D56"/>
<path id="Vector_16" fill-rule="evenodd" clip-rule="evenodd" d="M313.019 383.898C313.018 379.05 311.535 374.303 308.747 370.22C305.958 366.137 301.98 362.889 297.284 360.86C292.587 358.831 287.369 358.106 282.247 358.772C277.125 359.437 272.313 361.464 268.382 364.613C264.451 367.763 261.564 371.902 260.064 376.542C258.564 381.182 258.513 386.128 259.917 390.794C261.322 395.46 264.123 399.651 267.989 402.871C271.855 406.09 276.624 408.204 281.731 408.962V391.234H274.859V383.898H281.731V378.307C281.731 371.95 285.772 368.435 291.952 368.435C293.982 368.462 296.007 368.628 298.011 368.931V375.176H294.597C291.237 375.176 290.186 377.13 290.186 379.14V383.899H297.69L296.492 391.235H290.186V408.964C296.552 408.019 302.349 404.975 306.534 400.38C310.72 395.785 313.019 389.941 313.019 383.898Z" fill="#3F3D56"/>
<path id="Vector_17" d="M320.004 525.785C311.817 525.785 303.814 523.509 297.007 519.244C290.2 514.98 284.895 508.918 281.762 501.827C278.629 494.735 277.809 486.932 279.406 479.403C281.004 471.875 284.946 464.959 290.735 459.532C296.524 454.104 303.899 450.408 311.929 448.91C319.958 447.413 328.281 448.181 335.844 451.119C343.408 454.056 349.873 459.031 354.421 465.413C358.969 471.795 361.397 479.299 361.397 486.975C361.384 497.264 357.019 507.129 349.259 514.405C341.499 521.68 330.978 525.773 320.004 525.785ZM320.004 450.013C312.207 450.013 304.585 452.18 298.102 456.242C291.62 460.303 286.567 466.076 283.583 472.83C280.599 479.584 279.819 487.016 281.34 494.186C282.861 501.356 286.615 507.942 292.129 513.111C297.642 518.28 304.666 521.8 312.313 523.226C319.96 524.653 327.887 523.921 335.09 521.123C342.293 518.326 348.45 513.588 352.782 507.51C357.114 501.431 359.426 494.285 359.426 486.975C359.414 477.175 355.257 467.78 347.866 460.851C340.476 453.921 330.456 450.024 320.004 450.013Z" fill="#3F3D56"/>
<path id="Vector_18" d="M339.715 474.038L344.643 473.114C344.643 473.114 340.503 477.457 339.715 477.734C339.641 478.657 339.641 479.584 339.715 480.506C330.254 518.577 295.365 501.76 295.365 501.76C308.079 502.037 309.163 497.139 309.163 497.139C301.771 496.123 300.293 491.595 300.293 491.595C300.956 491.923 301.725 492.01 302.453 491.84C303.18 491.669 303.815 491.253 304.235 490.671C296.252 488.73 297.336 481.43 297.336 481.43C298.759 482.394 300.422 482.998 302.166 483.186C301.279 482.17 293.788 473.761 298.322 469.418C298.322 469.418 303.841 478.658 318.329 479.49L319.314 479.305C319.147 478.64 319.08 477.955 319.117 477.272C319.117 474.699 320.207 472.231 322.148 470.411C324.089 468.592 326.721 467.57 329.465 467.57C336.364 467.57 337.842 471.266 337.842 471.266L342.77 468.494C342.672 468.494 342.179 473.114 339.715 474.038Z" fill="#3F3D56"/>
</g>
<defs>
<clipPath id="clip0">
<rect width="750" height="584" fill="white" transform="translate(-157)"/>
</clipPath>
</defs>
</svg>
