<svg width="66" height="90" viewBox="0 0 66 90" fill="none" xmlns="http://www.w3.org/2000/svg">
<g id="Logo">
<path id="Ellipse 1" d="M64.1393 32.9984C64.1393 41.7732 60.5779 53.0126 54.7649 62.0551C48.9144 71.1558 41.1025 77.5656 32.8197 77.5656C24.5369 77.5656 16.7249 71.1558 10.8744 62.0551C5.06142 53.0126 1.5 41.7732 1.5 32.9984C1.5 15.5946 15.53 1.5 32.8197 1.5C50.1094 1.5 64.1393 15.5946 64.1393 32.9984Z" stroke="#242236" stroke-width="3"/>
<path id="Rectangle 2" d="M26.5 79.5H38.5V88.5H26.5V79.5Z" stroke="#242236" stroke-width="3"/>
<path id="Line 1" d="M37 71.4344L48.1885 14" stroke="#242236" stroke-width="2"/>
<line id="Line 2" y1="-1" x2="58.5141" y2="-1" transform="matrix(-0.191211 -0.981549 -0.981549 0.191211 27.1885 71.4344)" stroke="#242236" stroke-width="2"/>
<path id="Line 3" d="M32.5 64.4206L32.5 11.5" stroke="#242236" stroke-width="2"/>
</g>
</svg>
